<svg viewBox="0 0 380 1980" xmlns="http://www.w3.org/2000/svg" role="img" aria-labelledby="t d">
<title id="t">출발 흐름 — 홈 → 모달 → 진행 중 상세</title>
<desc id="d">출발 클릭 후 3단계 흐름</desc>
<defs>
<style><![CDATA[
text{font-family:system-ui,-apple-system,sans-serif}
.c-teal{fill:#9FE1CB}.c-amber{fill:#FAC775}.c-coral{fill:#F5C4B3}.c-pink{fill:#F4C0D1}.c-gray{fill:#D3D1C7}.c-blue{fill:#B5D4F4}.c-purple{fill:#CECBF6}
.lbl{font-size:12px;font-weight:500;fill:#6b6b6b}
.h{font-size:14px;font-weight:500;fill:#1f1f1f}
.h2{font-size:16px;font-weight:500;fill:#1f1f1f}
.b{font-size:12px;fill:#1f1f1f}
.bs{font-size:11px;fill:#6b6b6b}
.bxs{font-size:10px;fill:#9b9b9b}
.cta{font-size:13px;font-weight:500;fill:#1f1f1f}
.ph{font-size:12px;fill:#9b9b9b}
.arrow{font-size:24px;font-weight:500;fill:#6b6b6b}
]]></style>
</defs>
<text x="14" y="20" class="lbl">1단계 — 홈 (메인 CTA "출발")</text>
<rect x="10" y="32" width="360" height="600" rx="14" fill="#ffffff" stroke="#c5c5c5" stroke-width="0.5"/>
<rect x="10" y="32" width="360" height="22" rx="14" fill="#f5f5f5"/>
<rect x="10" y="46" width="360" height="8" fill="#f5f5f5"/>
<text x="22" y="48" class="bxs">9:41</text>
<text x="346" y="48" class="bxs" text-anchor="end">●●●</text>
<text x="22" y="76" class="h">Memory Trip</text>
<text x="334" y="76" class="h" text-anchor="middle">⌕</text>
<text x="354" y="76" class="h" text-anchor="middle">≡</text>
<rect x="22" y="96" width="336" height="120" rx="14" class="c-teal"/>
<text x="190" y="142" font-size="32" text-anchor="middle" fill="#04342C">✈</text>
<text x="190" y="172" font-size="20" font-weight="500" text-anchor="middle" fill="#04342C">출발</text>
<text x="190" y="192" font-size="11" text-anchor="middle" fill="#085041">새 여행 시작하기</text>
<rect x="22" y="232" width="336" height="44" rx="8" fill="#ffffff" stroke="#e5e5e5" stroke-width="0.5"/>
<text x="40" y="260" font-size="14">📸</text>
<text x="64" y="260" class="cta">사진으로 여행 만들기</text>
<text x="22" y="304" class="h">최근 여행</text>
<rect x="22" y="316" width="336" height="80" rx="8" fill="#ffffff" stroke="#e5e5e5" stroke-width="0.5"/>
<rect x="32" y="326" width="60" height="60" rx="6" class="c-coral"/>
<text x="104" y="344" class="h">강원도 가족캠핑</text>
<text x="104" y="362" class="bs">2026.04.12 ~ 04.14 · camping</text>
<text x="104" y="378" class="bxs">⭐ 4.5 · 2박 · 사진 28장</text>
<rect x="22" y="404" width="336" height="80" rx="8" fill="#ffffff" stroke="#e5e5e5" stroke-width="0.5"/>
<rect x="32" y="414" width="60" height="60" rx="6" class="c-pink"/>
<text x="104" y="432" class="h">부산 출장 + α</text>
<text x="104" y="450" class="bs">2026.03.05 ~ 03.08 · trip</text>
<rect x="22" y="500" width="336" height="60" rx="8" fill="#f5f5f5"/>
<text x="76" y="534" font-size="18" font-weight="500" text-anchor="middle" fill="#1f1f1f">12</text>
<text x="76" y="549" class="bxs" text-anchor="middle">여행</text>
<text x="190" y="534" font-size="18" font-weight="500" text-anchor="middle" fill="#1f1f1f">87</text>
<text x="190" y="549" class="bxs" text-anchor="middle">장소</text>
<text x="304" y="534" font-size="18" font-weight="500" text-anchor="middle" fill="#1f1f1f">1,234</text>
<text x="304" y="549" class="bxs" text-anchor="middle">사진</text>
<text x="190" y="660" class="arrow" text-anchor="middle">↓</text>

<text x="14" y="694" class="lbl">2단계 — 빠른 생성 모달 (3필드)</text>
<rect x="10" y="706" width="360" height="600" rx="14" fill="#fafafa" stroke="#c5c5c5" stroke-width="0.5"/>
<rect x="22" y="724" width="336" height="40" rx="8" fill="#f5f5f5" opacity="0.4"/>
<rect x="22" y="772" width="336" height="80" rx="8" fill="#ffffff" opacity="0.4" stroke="#e5e5e5" stroke-width="0.5"/>
<rect x="10" y="870" width="360" height="436" rx="20" fill="#ffffff" stroke="#c5c5c5" stroke-width="0.5"/>
<rect x="170" y="884" width="40" height="4" rx="2" fill="#9b9b9b"/>
<text x="32" y="922" class="h2">새 여행 시작</text>
<text x="348" y="922" font-size="16" text-anchor="end" fill="#6b6b6b">✕</text>
<text x="32" y="958" class="bs">제목</text>
<rect x="32" y="966" width="316" height="40" rx="8" fill="#ffffff" stroke="#c5c5c5" stroke-width="0.5"/>
<text x="44" y="990" class="ph">예: 제주도 봄여행</text>
<text x="32" y="1030" class="bs">형태</text>
<rect x="32" y="1038" width="154" height="40" rx="8" class="c-teal"/>
<text x="62" y="1062" font-size="14" fill="#085041">●</text>
<text x="78" y="1062" font-size="13" font-weight="500" fill="#04342C">여행</text>
<rect x="194" y="1038" width="154" height="40" rx="8" fill="#ffffff" stroke="#e5e5e5" stroke-width="0.5"/>
<text x="224" y="1062" font-size="14" fill="#9b9b9b">○</text>
<text x="240" y="1062" class="cta">캠핑</text>
<text x="32" y="1102" class="bs">시작일</text>
<rect x="32" y="1110" width="316" height="40" rx="8" fill="#ffffff" stroke="#c5c5c5" stroke-width="0.5"/>
<text x="44" y="1134" class="b">2026-05-14 (오늘)</text>
<text x="336" y="1134" font-size="14" text-anchor="end" fill="#6b6b6b">📅</text>
<text x="32" y="1174" class="bs">종료일은 마무리할 때 입력해도 돼요</text>
<rect x="32" y="1198" width="100" height="48" rx="8" fill="#ffffff" stroke="#c5c5c5" stroke-width="0.5"/>
<text x="82" y="1228" class="cta" text-anchor="middle">취소</text>
<rect x="148" y="1198" width="200" height="48" rx="8" class="c-teal"/>
<text x="248" y="1224" font-size="14" font-weight="500" text-anchor="middle" fill="#04342C">✈ 시작하기</text>
<text x="248" y="1240" font-size="9" text-anchor="middle" fill="#085041">2탭으로 끝!</text>
<text x="190" y="1340" class="arrow" text-anchor="middle">↓</text>

<text x="14" y="1374" class="lbl">3단계 — 진행 중 상세 (사진 0장 / 기록 모드)</text>
<rect x="10" y="1386" width="360" height="580" rx="14" fill="#ffffff" stroke="#c5c5c5" stroke-width="0.5"/>
<rect x="10" y="1386" width="360" height="22" rx="14" fill="#f5f5f5"/>
<rect x="10" y="1400" width="360" height="8" fill="#f5f5f5"/>
<text x="22" y="1402" class="bxs">9:41</text>
<text x="346" y="1402" class="bxs" text-anchor="end">●●●</text>
<text x="22" y="1432" font-size="16" fill="#1f1f1f">‹</text>
<text x="190" y="1432" class="h" text-anchor="middle">제주도 봄여행</text>
<text x="354" y="1432" font-size="14" text-anchor="middle">⋯</text>
<rect x="22" y="1448" width="120" height="22" rx="11" class="c-amber"/>
<text x="82" y="1463" font-size="11" font-weight="500" text-anchor="middle" fill="#854F0B">● 진행 중 · 1일째</text>
<text x="354" y="1463" class="bxs" text-anchor="end">5월 14일 ~ 미정</text>
<rect x="22" y="1482" width="336" height="180" rx="12" class="c-gray"/>
<text x="190" y="1546" font-size="32" text-anchor="middle" fill="#888780">📷</text>
<text x="190" y="1576" font-size="14" font-weight="500" text-anchor="middle" fill="#5F5E5A">첫 기록을 남겨보세요</text>
<text x="190" y="1594" font-size="11" text-anchor="middle" fill="#888780">아래 버튼으로 빠르게 추가</text>
<g transform="translate(22, 1678)">
<rect x="0" y="0" width="62" height="80" rx="10" fill="#f5f5f5"/><text x="31" y="36" font-size="20" text-anchor="middle">📸</text><text x="31" y="62" font-size="9" text-anchor="middle" fill="#1f1f1f">카메라</text>
<rect x="68" y="0" width="62" height="80" rx="10" fill="#f5f5f5"/><text x="99" y="36" font-size="20" text-anchor="middle">🖼</text><text x="99" y="62" font-size="9" text-anchor="middle" fill="#1f1f1f">갤러리</text>
<rect x="136" y="0" width="62" height="80" rx="10" fill="#f5f5f5"/><text x="167" y="36" font-size="20" text-anchor="middle">📍</text><text x="167" y="62" font-size="9" text-anchor="middle" fill="#1f1f1f">장소</text>
<rect x="204" y="0" width="62" height="80" rx="10" fill="#f5f5f5"/><text x="235" y="36" font-size="20" text-anchor="middle">💰</text><text x="235" y="62" font-size="9" text-anchor="middle" fill="#1f1f1f">비용</text>
<rect x="272" y="0" width="62" height="80" rx="10" fill="#f5f5f5"/><text x="303" y="36" font-size="20" text-anchor="middle">📝</text><text x="303" y="62" font-size="9" text-anchor="middle" fill="#1f1f1f">일기</text>
</g>
<text x="22" y="1788" class="h">타임라인</text>
<rect x="22" y="1798" width="336" height="80" rx="8" fill="#f5f5f5"/>
<text x="190" y="1832" font-size="20" text-anchor="middle" fill="#9b9b9b">∅</text>
<text x="190" y="1854" class="bs" text-anchor="middle">아직 기록이 없어요</text>
<line x1="22" y1="1922" x2="358" y2="1922" stroke="#e5e5e5" stroke-width="0.5"/>
<g font-size="10" text-anchor="middle">
<text x="64" y="1946" fill="#6b6b6b">홈</text>
<text x="148" y="1946" font-weight="500" fill="#1f1f1f">● 목록</text>
<text x="232" y="1946" fill="#6b6b6b">지도</text>
<text x="316" y="1946" fill="#6b6b6b">설정</text>
</g>
</svg>
