<svg viewBox="0 0 380 1340" xmlns="http://www.w3.org/2000/svg" role="img" aria-labelledby="t d">
<title id="t">빠른 추가 — 비용(키패드) + 일기(감정 칩)</title>
<desc id="d">비용 추가 키패드 화면, 일기 추가 감정 칩 화면</desc>
<defs>
<style><![CDATA[
text{font-family:system-ui,-apple-system,sans-serif}
.c-teal{fill:#9FE1CB}.c-pink{fill:#F4C0D1}
.lbl{font-size:12px;font-weight:500;fill:#6b6b6b}
.h{font-size:14px;font-weight:500;fill:#1f1f1f}
.b{font-size:12px;fill:#1f1f1f}
.bs{font-size:11px;fill:#6b6b6b}
.bxs{font-size:10px;fill:#9b9b9b}
.cta{font-size:13px;font-weight:500;fill:#1f1f1f}
.section{font-size:11px;font-weight:500;fill:#6b6b6b}
.amount{font-size:32px;font-weight:500;fill:#1f1f1f}
.key{font-size:18px;fill:#1f1f1f}
.cat{font-size:10px;text-anchor:middle}
]]></style>
</defs>
<text x="14" y="20" class="lbl">화면 3 — 비용 추가 (식비 ₩42,000)</text>
<rect x="10" y="32" width="360" height="620" rx="14" fill="#ffffff" stroke="#c5c5c5" stroke-width="0.5"/>
<rect x="10" y="32" width="360" height="22" rx="14" fill="#f5f5f5"/>
<rect x="10" y="46" width="360" height="8" fill="#f5f5f5"/>
<text x="22" y="48" class="bxs">9:41</text>
<text x="346" y="48" class="bxs" text-anchor="end">●●●</text>
<text x="22" y="78" class="cta">취소</text>
<text x="190" y="78" class="h" text-anchor="middle">비용 추가</text>
<text x="358" y="78" class="cta" text-anchor="end" fill="#0F6E56">저장</text>
<line x1="10" y1="92" x2="370" y2="92" stroke="#e5e5e5" stroke-width="0.5"/>
<text x="22" y="116" class="section">카테고리</text>
<g transform="translate(22, 124)">
<rect x="0" y="0" width="78" height="60" rx="8" fill="#f5f5f5"/><text x="39" y="28" font-size="18" text-anchor="middle">🛏</text><text x="39" y="50" class="cat" fill="#1f1f1f">숙박</text>
<rect x="86" y="0" width="78" height="60" rx="8" fill="#f5f5f5"/><text x="125" y="28" font-size="18" text-anchor="middle">🚗</text><text x="125" y="50" class="cat" fill="#1f1f1f">교통</text>
<rect x="172" y="0" width="78" height="60" rx="8" class="c-teal"/><text x="211" y="28" font-size="18" text-anchor="middle">🍽</text><text x="211" y="50" class="cat" fill="#04342C">식비</text>
<rect x="258" y="0" width="78" height="60" rx="8" fill="#f5f5f5"/><text x="297" y="28" font-size="18" text-anchor="middle">☕</text><text x="297" y="50" class="cat" fill="#1f1f1f">카페</text>
<rect x="0" y="68" width="78" height="60" rx="8" fill="#f5f5f5"/><text x="39" y="96" font-size="18" text-anchor="middle">🛍</text><text x="39" y="118" class="cat" fill="#1f1f1f">쇼핑</text>
<rect x="86" y="68" width="78" height="60" rx="8" fill="#f5f5f5"/><text x="125" y="96" font-size="18" text-anchor="middle">⛺</text><text x="125" y="118" class="cat" fill="#1f1f1f">캠핑장</text>
<rect x="172" y="68" width="78" height="60" rx="8" fill="#f5f5f5"/><text x="211" y="96" font-size="18" text-anchor="middle">🎒</text><text x="211" y="118" class="cat" fill="#1f1f1f">장비</text>
<rect x="258" y="68" width="78" height="60" rx="8" fill="#f5f5f5"/><text x="297" y="96" font-size="18" text-anchor="middle">⋯</text><text x="297" y="118" class="cat" fill="#1f1f1f">기타</text>
</g>
<rect x="22" y="280" width="336" height="64" rx="8" fill="#f5f5f5"/>
<text x="38" y="320" font-size="14" fill="#6b6b6b">₩</text>
<text x="346" y="324" class="amount" text-anchor="end">42,000</text>
<rect x="22" y="356" width="336" height="36" rx="8" fill="#ffffff" stroke="#e5e5e5" stroke-width="0.5"/>
<text x="34" y="378" class="bs">📅 2026-05-14 · 📍 흑돼지마을 · 메모 ▶</text>
<g transform="translate(22, 408)">
<rect x="0" y="0" width="106" height="46" rx="8" fill="#f5f5f5"/><text x="53" y="29" class="key" text-anchor="middle">1</text>
<rect x="112" y="0" width="106" height="46" rx="8" fill="#f5f5f5"/><text x="165" y="29" class="key" text-anchor="middle">2</text>
<rect x="224" y="0" width="106" height="46" rx="8" fill="#f5f5f5"/><text x="277" y="29" class="key" text-anchor="middle">3</text>
<rect x="0" y="52" width="106" height="46" rx="8" fill="#f5f5f5"/><text x="53" y="81" class="key" text-anchor="middle">4</text>
<rect x="112" y="52" width="106" height="46" rx="8" fill="#f5f5f5"/><text x="165" y="81" class="key" text-anchor="middle">5</text>
<rect x="224" y="52" width="106" height="46" rx="8" fill="#f5f5f5"/><text x="277" y="81" class="key" text-anchor="middle">6</text>
<rect x="0" y="104" width="106" height="46" rx="8" fill="#f5f5f5"/><text x="53" y="133" class="key" text-anchor="middle">7</text>
<rect x="112" y="104" width="106" height="46" rx="8" fill="#f5f5f5"/><text x="165" y="133" class="key" text-anchor="middle">8</text>
<rect x="224" y="104" width="106" height="46" rx="8" fill="#f5f5f5"/><text x="277" y="133" class="key" text-anchor="middle">9</text>
<rect x="0" y="156" width="106" height="46" rx="8" fill="#f5f5f5"/><text x="53" y="185" class="key" text-anchor="middle">000</text>
<rect x="112" y="156" width="106" height="46" rx="8" fill="#f5f5f5"/><text x="165" y="185" class="key" text-anchor="middle">0</text>
<rect x="224" y="156" width="106" height="46" rx="8" fill="#f5f5f5"/><text x="277" y="185" class="key" text-anchor="middle" fill="#6b6b6b">⌫</text>
</g>
<text x="190" y="640" class="bxs" text-anchor="middle">큰 키패드 = 한 손 빠른 입력 (가계부 패턴)</text>

<text x="14" y="688" class="lbl">화면 4 — 일기 추가 (오늘 · 행복+힐링 선택)</text>
<rect x="10" y="700" width="360" height="620" rx="14" fill="#ffffff" stroke="#c5c5c5" stroke-width="0.5"/>
<rect x="10" y="700" width="360" height="22" rx="14" fill="#f5f5f5"/>
<rect x="10" y="714" width="360" height="8" fill="#f5f5f5"/>
<text x="22" y="716" class="bxs">9:41</text>
<text x="346" y="716" class="bxs" text-anchor="end">●●●</text>
<text x="22" y="746" class="cta">취소</text>
<text x="190" y="746" class="h" text-anchor="middle">일기</text>
<text x="358" y="746" class="cta" text-anchor="end" fill="#0F6E56">저장</text>
<line x1="10" y1="760" x2="370" y2="760" stroke="#e5e5e5" stroke-width="0.5"/>
<text x="22" y="784" class="bs">언제</text>
<rect x="22" y="792" width="200" height="38" rx="8" fill="#ffffff" stroke="#c5c5c5" stroke-width="0.5"/>
<text x="34" y="816" class="b">📅 2026-05-14 (오늘)</text>
<rect x="230" y="792" width="128" height="38" rx="8" fill="#ffffff" stroke="#c5c5c5" stroke-width="0.5"/>
<circle cx="246" cy="811" r="6" fill="#f5f5f5" stroke="#c5c5c5" stroke-width="0.5"/>
<text x="258" y="816" class="bs">전체 회고</text>
<text x="22" y="860" class="bs">기분 (다중 선택)</text>
<g transform="translate(22, 870)">
<rect x="0" y="0" width="60" height="32" rx="16" class="c-pink"/>
<text x="30" y="21" font-size="11" font-weight="500" text-anchor="middle" fill="#72243E">행복</text>
<rect x="68" y="0" width="60" height="32" rx="16" class="c-teal"/>
<text x="98" y="21" font-size="11" font-weight="500" text-anchor="middle" fill="#085041">힐링</text>
<rect x="136" y="0" width="60" height="32" rx="16" fill="#ffffff" stroke="#c5c5c5" stroke-width="0.5"/>
<text x="166" y="21" font-size="11" text-anchor="middle" fill="#1f1f1f">감동</text>
<rect x="204" y="0" width="60" height="32" rx="16" fill="#ffffff" stroke="#c5c5c5" stroke-width="0.5"/>
<text x="234" y="21" font-size="11" text-anchor="middle" fill="#1f1f1f">설렘</text>
<rect x="272" y="0" width="60" height="32" rx="16" fill="#ffffff" stroke="#c5c5c5" stroke-width="0.5"/>
<text x="302" y="21" font-size="11" text-anchor="middle" fill="#1f1f1f">피곤</text>
<rect x="0" y="40" width="68" height="32" rx="16" fill="#ffffff" stroke="#c5c5c5" stroke-width="0.5"/>
<text x="34" y="61" font-size="11" text-anchor="middle" fill="#1f1f1f">외로움</text>
<rect x="74" y="40" width="68" height="32" rx="16" fill="#ffffff" stroke="#c5c5c5" stroke-width="0.5"/>
<text x="108" y="61" font-size="11" text-anchor="middle" fill="#1f1f1f">아쉬움</text>
</g>
<text x="22" y="982" class="bs">오늘의 메모</text>
<rect x="22" y="990" width="336" height="160" rx="8" fill="#ffffff" stroke="#c5c5c5" stroke-width="0.5"/>
<text x="34" y="1014" class="b">성산일출봉 정상 일출 진짜 미쳤다.</text>
<text x="34" y="1034" class="b">바람이 너무 세서 모자 날아갈 뻔.</text>
<text x="34" y="1054" class="b">아침 게스트하우스 조식도 의외로 훌륭.</text>
<rect x="22" y="1170" width="336" height="60" rx="8" fill="#f5f5f5"/>
<text x="34" y="1192" class="bs">💡 같은 날 일기가 있으면</text>
<text x="34" y="1210" class="bs">"업데이트하시겠어요?" 확인 후 덮어씁니다</text>
<text x="34" y="1226" class="bxs">전체 회고 토글 시 → best_moment / 다시 가고 싶은 곳 입력란 노출</text>
<text x="190" y="1290" class="bxs" text-anchor="middle">UNIQUE(trip_id, entry_date) — 같은 날 1건</text>
</svg>
