<svg viewBox="0 0 380 1980" xmlns="http://www.w3.org/2000/svg" role="img" aria-labelledby="t d">
<title id="t">여행 도장 짓기</title>
<desc id="d">홈 진입 카드 + 도장 짓기 풀스크린 8섹션</desc>
<defs>
<style><![CDATA[
text{font-family:system-ui,-apple-system,sans-serif}
.c-teal{fill:#9FE1CB}.c-amber{fill:#FAC775}.c-coral{fill:#F5C4B3}.c-pink{fill:#F4C0D1}
.lbl{font-size:12px;font-weight:500;fill:#6b6b6b}
.h{font-size:14px;font-weight:500;fill:#1f1f1f}
.b{font-size:12px;fill:#1f1f1f}
.bs{font-size:11px;fill:#6b6b6b}
.bxs{font-size:10px;fill:#9b9b9b}
.cta{font-size:13px;font-weight:500;fill:#1f1f1f}
.section{font-size:11px;font-weight:500;fill:#6b6b6b}
.ph{font-size:12px;fill:#9b9b9b}
.statlbl{font-size:9px;text-anchor:middle}
.tip{font-size:11px;font-style:italic;fill:#6b6b6b}
]]></style>
</defs>
<text x="14" y="20" class="lbl">진입 — 홈 화면의 "마무리 필요" 카드 (참고: 현재는 목록에서 표시로 단순화됨)</text>
<rect x="10" y="32" width="360" height="380" rx="14" fill="#ffffff" stroke="#c5c5c5" stroke-width="0.5"/>
<rect x="10" y="32" width="360" height="22" rx="14" fill="#f5f5f5"/>
<rect x="10" y="46" width="360" height="8" fill="#f5f5f5"/>
<text x="22" y="48" class="bxs">9:41</text>
<text x="346" y="48" class="bxs" text-anchor="end">●●●</text>
<text x="22" y="76" class="h">Memory Trip</text>
<text x="334" y="76" class="h" text-anchor="middle">⌕</text>
<text x="354" y="76" class="h" text-anchor="middle">≡</text>
<rect x="22" y="96" width="336" height="124" rx="12" class="c-amber"/>
<text x="34" y="120" font-size="12" font-weight="500" fill="#854F0B">⏰ 마무리할 여행이 있어요</text>
<text x="34" y="148" font-size="16" font-weight="500" fill="#412402">제주도 봄여행</text>
<text x="34" y="166" font-size="11" fill="#633806">5월 12일 ~ 5월 16일 · 끝난 지 2일째</text>
<rect x="34" y="178" width="158" height="32" rx="8" fill="#FAEEDA" stroke="#854F0B" stroke-width="0.5"/>
<text x="113" y="199" font-size="12" font-weight="500" text-anchor="middle" fill="#412402">✓ 마무리하기</text>
<rect x="200" y="178" width="100" height="32" rx="8" fill="transparent" stroke="#854F0B" stroke-width="0.5" stroke-dasharray="3 3"/>
<text x="250" y="199" font-size="11" text-anchor="middle" fill="#854F0B">나중에</text>
<rect x="22" y="240" width="336" height="60" rx="12" class="c-teal"/>
<text x="36" y="276" font-size="20" fill="#04342C">✈</text>
<text x="60" y="278" font-size="14" font-weight="500" fill="#04342C">출발 — 새 여행</text>
<rect x="22" y="316" width="336" height="60" rx="8" fill="#ffffff" stroke="#e5e5e5" stroke-width="0.5"/>
<rect x="32" y="324" width="44" height="44" rx="6" class="c-coral"/>
<text x="88" y="342" class="h">강원도 가족캠핑</text>
<text x="88" y="360" class="bs">2026.04.12 · ⭐ 4.5</text>
<line x1="22" y1="392" x2="358" y2="392" stroke="#e5e5e5" stroke-width="0.5"/>

<text x="14" y="448" class="lbl">도장 짓기 화면 — 스크롤 풀스크린 (8섹션)</text>
<rect x="10" y="460" width="360" height="1500" rx="14" fill="#ffffff" stroke="#c5c5c5" stroke-width="0.5"/>
<rect x="10" y="460" width="360" height="22" rx="14" fill="#f5f5f5"/>
<rect x="10" y="474" width="360" height="8" fill="#f5f5f5"/>
<text x="22" y="476" class="bxs">9:41</text>
<text x="346" y="476" class="bxs" text-anchor="end">●●●</text>
<text x="22" y="506" class="cta">건너뛰기</text>
<text x="190" y="506" class="h" text-anchor="middle">도장 짓기</text>
<text x="358" y="506" class="cta" text-anchor="end" fill="#0F6E56">완료</text>
<line x1="10" y1="520" x2="370" y2="520" stroke="#e5e5e5" stroke-width="0.5"/>
<rect x="22" y="540" width="336" height="220" rx="14" class="c-teal"/>
<text x="190" y="572" font-size="11" text-anchor="middle" fill="#085041">이번 여행이 이랬어요</text>
<text x="190" y="600" font-size="20" font-weight="500" text-anchor="middle" fill="#04342C">제주도 봄여행</text>
<text x="190" y="618" font-size="11" text-anchor="middle" fill="#085041">2026.05.12 ~ 05.16 · trip</text>
<line x1="46" y1="640" x2="334" y2="640" stroke="#5DCAA5" stroke-width="0.5"/>
<g transform="translate(36, 656)">
<text x="38" y="20" font-size="20" font-weight="500" text-anchor="middle" fill="#04342C">4</text>
<text x="38" y="36" class="statlbl" fill="#085041">박 5일</text>
<text x="114" y="20" font-size="20" font-weight="500" text-anchor="middle" fill="#04342C">7</text>
<text x="114" y="36" class="statlbl" fill="#085041">장소</text>
<text x="190" y="20" font-size="20" font-weight="500" text-anchor="middle" fill="#04342C">42</text>
<text x="190" y="36" class="statlbl" fill="#085041">사진</text>
<text x="266" y="20" font-size="20" font-weight="500" text-anchor="middle" fill="#04342C">₩612k</text>
<text x="266" y="36" class="statlbl" fill="#085041">총 비용</text>
</g>
<text x="190" y="744" font-size="10" text-anchor="middle" fill="#085041">1일 평균 ₩122,400 · 가장 큰 지출 — 숙박 ₩340,000</text>
<text x="22" y="794" class="section">📅 끝난 날</text>
<rect x="22" y="804" width="336" height="48" rx="8" fill="#ffffff" stroke="#c5c5c5" stroke-width="0.5"/>
<text x="34" y="832" class="b">2026-05-16 (오늘)</text>
<text x="346" y="832" font-size="14" text-anchor="end" fill="#6b6b6b">📅</text>
<text x="22" y="884" class="section">⭐ 이번 여행 어땠어요?</text>
<g transform="translate(22, 898)" font-size="32">
<text x="32" y="38" text-anchor="middle" fill="#EF9F27">★</text>
<text x="96" y="38" text-anchor="middle" fill="#EF9F27">★</text>
<text x="160" y="38" text-anchor="middle" fill="#EF9F27">★</text>
<text x="224" y="38" text-anchor="middle" fill="#EF9F27">★</text>
<text x="288" y="38" text-anchor="middle" fill="#9b9b9b">☆</text>
</g>
<text x="190" y="958" class="bxs" text-anchor="middle">4점 — 좋았어요</text>
<text x="22" y="990" class="section">💬 한 줄로 표현하면</text>
<rect x="22" y="1000" width="336" height="48" rx="8" fill="#ffffff" stroke="#c5c5c5" stroke-width="0.5"/>
<text x="34" y="1028" class="b">비 와도 좋았던 제주</text>
<text x="22" y="1080" class="section">✨ 가장 기억에 남는 순간</text>
<rect x="22" y="1090" width="336" height="80" rx="8" fill="#ffffff" stroke="#c5c5c5" stroke-width="0.5"/>
<text x="34" y="1114" class="b">성산일출봉 정상에서 일출 본 거.</text>
<text x="34" y="1132" class="b">바람 진짜 셌는데 진짜 멋졌음.</text>
<text x="22" y="1202" class="section">🗺 다시 가고 싶은 곳</text>
<rect x="22" y="1212" width="336" height="60" rx="8" fill="#ffffff" stroke="#c5c5c5" stroke-width="0.5"/>
<text x="34" y="1236" class="b">우도 — 다음엔 1박 하고 싶다</text>
<text x="34" y="1254" class="ph">(여러 곳이면 줄바꿈으로)</text>
<text x="22" y="1304" class="section">🖼 대표 사진 선택</text>
<text x="358" y="1304" class="bxs" text-anchor="end">건너뛰면 자동 선택</text>
<g transform="translate(22, 1316)">
<rect x="0" y="0" width="78" height="78" rx="6" class="c-teal"/>
<rect x="-2" y="-2" width="82" height="82" rx="7" fill="none" stroke="#0F6E56" stroke-width="2"/>
<text x="39" y="48" font-size="22" text-anchor="middle" fill="#04342C">★</text>
<rect x="86" y="0" width="78" height="78" rx="6" class="c-coral"/>
<text x="125" y="48" font-size="18" text-anchor="middle" fill="#712B13">📷</text>
<rect x="172" y="0" width="78" height="78" rx="6" class="c-amber"/>
<text x="211" y="48" font-size="18" text-anchor="middle" fill="#854F0B">📷</text>
<rect x="258" y="0" width="78" height="78" rx="6" class="c-pink"/>
<text x="297" y="48" font-size="18" text-anchor="middle" fill="#72243E">📷</text>
</g>
<text x="190" y="1418" class="bxs" text-anchor="middle">↕ 더 보기 (사진 42장 중)</text>
<rect x="22" y="1448" width="336" height="60" rx="12" class="c-teal"/>
<text x="190" y="1486" font-size="15" font-weight="500" text-anchor="middle" fill="#04342C">✓ 여행 마무리하기</text>
<text x="190" y="1532" class="tip" text-anchor="middle">언제든 다시 와서 수정할 수 있어요</text>
</svg>
