<svg viewBox="0 0 380 1380" xmlns="http://www.w3.org/2000/svg" role="img" aria-labelledby="t d">
<title id="t">설정 화면</title>
<desc id="d">5개 섹션: 백업/저장소/권한/앱/정보</desc>
<defs>
<style><![CDATA[
text{font-family:system-ui,-apple-system,sans-serif}
.c-teal{fill:#9FE1CB}.c-coral{fill:#F5C4B3}.c-amber{fill:#FAC775}
.lbl{font-size:12px;font-weight:500;fill:#6b6b6b}
.h{font-size:14px;font-weight:500;fill:#1f1f1f}
.h2{font-size:16px;font-weight:500;fill:#1f1f1f}
.bs{font-size:11px;fill:#6b6b6b}
.bxs{font-size:10px;fill:#9b9b9b}
.cta{font-size:13px;font-weight:500;fill:#1f1f1f}
.section{font-size:11px;font-weight:500;fill:#6b6b6b;text-transform:uppercase;letter-spacing:0.05em}
.row-label{font-size:13px;fill:#1f1f1f}
.row-value{font-size:12px;fill:#6b6b6b}
.row-sub{font-size:11px;fill:#9b9b9b}
]]></style>
</defs>
<text x="14" y="20" class="lbl">설정 화면 — 5개 섹션 (스크롤 풀스크린)</text>
<rect x="10" y="32" width="360" height="1340" rx="14" fill="#ffffff" stroke="#c5c5c5" stroke-width="0.5"/>
<rect x="10" y="32" width="360" height="22" rx="14" fill="#f5f5f5"/>
<rect x="10" y="46" width="360" height="8" fill="#f5f5f5"/>
<text x="22" y="48" class="bxs">9:41</text>
<text x="346" y="48" class="bxs" text-anchor="end">●●●</text>
<text x="22" y="78" class="h2">설정</text>

<text x="22" y="116" class="section">백업 및 복구</text>
<rect x="22" y="124" width="336" height="288" rx="10" fill="#ffffff" stroke="#e5e5e5" stroke-width="0.5"/>
<text x="34" y="148" class="row-label">자동 백업</text>
<rect x="316" y="138" width="32" height="20" rx="10" class="c-teal"/>
<circle cx="338" cy="148" r="8" fill="white"/>
<line x1="34" y1="166" x2="346" y2="166" stroke="#e5e5e5" stroke-width="0.5"/>
<text x="34" y="186" class="row-label">백업 위치</text>
<text x="346" y="186" class="row-value" text-anchor="end">iCloud Drive ›</text>
<line x1="34" y1="204" x2="346" y2="204" stroke="#e5e5e5" stroke-width="0.5"/>
<text x="34" y="224" class="row-label">마지막 백업</text>
<text x="346" y="224" class="row-value" text-anchor="end">오늘 09:00</text>
<text x="346" y="240" class="row-sub" text-anchor="end">memory_trip_backup_20260514.db · 9.4 MB</text>
<line x1="34" y1="258" x2="346" y2="258" stroke="#e5e5e5" stroke-width="0.5"/>
<text x="34" y="278" class="row-label" fill="#0F6E56">지금 백업하기</text>
<text x="346" y="278" class="row-sub" text-anchor="end">예상 9.5 MB</text>
<line x1="34" y1="296" x2="346" y2="296" stroke="#e5e5e5" stroke-width="0.5"/>
<text x="34" y="316" class="row-label">백업 목록</text>
<text x="346" y="316" class="row-value" text-anchor="end">12개 ›</text>
<line x1="34" y1="334" x2="346" y2="334" stroke="#e5e5e5" stroke-width="0.5"/>
<text x="34" y="354" class="row-label">백업에서 복구</text>
<text x="346" y="354" class="row-value" text-anchor="end">›</text>
<line x1="34" y1="372" x2="346" y2="372" stroke="#e5e5e5" stroke-width="0.5"/>
<text x="34" y="392" class="row-label">DB 무결성 검사</text>
<text x="346" y="392" class="row-value" text-anchor="end">정상 ✓</text>

<text x="22" y="436" class="section">저장소</text>
<rect x="22" y="444" width="336" height="172" rx="10" fill="#ffffff" stroke="#e5e5e5" stroke-width="0.5"/>
<text x="34" y="468" class="row-label">사용 중</text>
<text x="346" y="468" class="row-value" text-anchor="end" fill="#1f1f1f" font-weight="500">342 MB</text>
<rect x="34" y="478" width="312" height="8" rx="4" fill="#f5f5f5"/>
<rect x="34" y="478" width="226" height="8" rx="4" class="c-teal"/>
<rect x="260" y="478" width="11" height="8" class="c-coral"/>
<rect x="271" y="478" width="75" height="8" rx="4" class="c-amber"/>
<line x1="34" y1="504" x2="346" y2="504" stroke="#e5e5e5" stroke-width="0.5"/>
<rect x="34" y="516" width="8" height="8" rx="2" class="c-teal"/>
<text x="48" y="524" class="row-label">사진</text>
<text x="346" y="524" class="row-value" text-anchor="end">248 MB</text>
<rect x="34" y="540" width="8" height="8" rx="2" class="c-coral"/>
<text x="48" y="548" class="row-label">데이터베이스</text>
<text x="346" y="548" class="row-value" text-anchor="end">12 MB</text>
<rect x="34" y="564" width="8" height="8" rx="2" class="c-amber"/>
<text x="48" y="572" class="row-label">백업</text>
<text x="346" y="572" class="row-value" text-anchor="end">82 MB</text>
<line x1="34" y1="588" x2="346" y2="588" stroke="#e5e5e5" stroke-width="0.5"/>
<text x="34" y="606" class="row-label" fill="#9b9b9b">정리 도구</text>
<text x="346" y="606" class="row-sub" text-anchor="end">Phase 2+</text>

<text x="22" y="640" class="section">권한</text>
<rect x="22" y="648" width="336" height="172" rx="10" fill="#ffffff" stroke="#e5e5e5" stroke-width="0.5"/>
<text x="34" y="672" font-size="14">📍</text>
<text x="56" y="672" class="row-label">위치</text>
<text x="346" y="672" class="row-value" text-anchor="end" fill="#0F6E56">허용됨 ›</text>
<line x1="34" y1="690" x2="346" y2="690" stroke="#e5e5e5" stroke-width="0.5"/>
<text x="34" y="710" font-size="14">📷</text>
<text x="56" y="710" class="row-label">카메라</text>
<text x="346" y="710" class="row-value" text-anchor="end" fill="#0F6E56">허용됨 ›</text>
<line x1="34" y1="728" x2="346" y2="728" stroke="#e5e5e5" stroke-width="0.5"/>
<text x="34" y="748" font-size="14">🖼</text>
<text x="56" y="748" class="row-label">사진</text>
<text x="346" y="748" class="row-value" text-anchor="end" fill="#0F6E56">허용됨 ›</text>
<line x1="34" y1="766" x2="346" y2="766" stroke="#e5e5e5" stroke-width="0.5"/>
<text x="34" y="786" font-size="14">🔔</text>
<text x="56" y="786" class="row-label">알림</text>
<text x="346" y="786" class="row-value" text-anchor="end" fill="#A32D2D">거부됨 ›</text>

<text x="22" y="844" class="section">앱</text>
<rect x="22" y="852" width="336" height="120" rx="10" fill="#ffffff" stroke="#e5e5e5" stroke-width="0.5"/>
<text x="34" y="876" class="row-label">테마</text>
<text x="346" y="876" class="row-value" text-anchor="end">시스템 ›</text>
<line x1="34" y1="894" x2="346" y2="894" stroke="#e5e5e5" stroke-width="0.5"/>
<text x="34" y="914" class="row-label">시작 화면</text>
<text x="346" y="914" class="row-value" text-anchor="end">홈 ›</text>
<line x1="34" y1="932" x2="346" y2="932" stroke="#e5e5e5" stroke-width="0.5"/>
<text x="34" y="952" class="row-label" fill="#9b9b9b">언어</text>
<text x="346" y="952" class="row-sub" text-anchor="end">Phase 2+</text>

<text x="22" y="996" class="section">정보</text>
<rect x="22" y="1004" width="336" height="200" rx="10" fill="#ffffff" stroke="#e5e5e5" stroke-width="0.5"/>
<text x="34" y="1028" class="row-label">버전</text>
<text x="346" y="1028" class="row-value" text-anchor="end">1.0.0 (Phase 1)</text>
<line x1="34" y1="1046" x2="346" y2="1046" stroke="#e5e5e5" stroke-width="0.5"/>
<text x="34" y="1066" class="row-label">피드백 보내기</text>
<text x="346" y="1066" class="row-value" text-anchor="end">›</text>
<line x1="34" y1="1084" x2="346" y2="1084" stroke="#e5e5e5" stroke-width="0.5"/>
<text x="34" y="1104" class="row-label">도움말 / 문의</text>
<text x="346" y="1104" class="row-value" text-anchor="end">›</text>
<line x1="34" y1="1122" x2="346" y2="1122" stroke="#e5e5e5" stroke-width="0.5"/>
<text x="34" y="1142" class="row-label">이용약관</text>
<text x="346" y="1142" class="row-value" text-anchor="end">›</text>
<line x1="34" y1="1160" x2="346" y2="1160" stroke="#e5e5e5" stroke-width="0.5"/>
<text x="34" y="1180" class="row-label">개인정보처리방침</text>
<text x="346" y="1180" class="row-value" text-anchor="end">›</text>

<line x1="22" y1="1280" x2="358" y2="1280" stroke="#e5e5e5" stroke-width="0.5"/>
<g font-size="10" text-anchor="middle">
<text x="64" y="1304" fill="#6b6b6b">홈</text>
<text x="148" y="1304" fill="#6b6b6b">목록</text>
<text x="232" y="1304" fill="#6b6b6b">지도</text>
<text x="316" y="1304" font-weight="500" fill="#1f1f1f">● 설정</text>
</g>
</svg>
